<?xml version="1.0" encoding="UTF-8" standalone="no"?>
<svg
   style="isolation:isolate"
   width="256"
   height="256"
   viewBox="0 0 256 256"
   version="1.1"
   id="svg56"
   sodipodi:docname="system-file-manager.svg"
   inkscape:version="1.1.2 (0a00cf5339, 2022-02-04)"
   xmlns:inkscape="http://www.inkscape.org/namespaces/inkscape"
   xmlns:sodipodi="http://sodipodi.sourceforge.net/DTD/sodipodi-0.dtd"
   xmlns="http://www.w3.org/2000/svg"
   xmlns:svg="http://www.w3.org/2000/svg">
  <sodipodi:namedview
     id="namedview58"
     pagecolor="#ffffff"
     bordercolor="#666666"
     borderopacity="1.0"
     inkscape:pageshadow="2"
     inkscape:pageopacity="0.0"
     inkscape:pagecheckerboard="0"
     showgrid="false"
     inkscape:zoom="3.2460939"
     inkscape:cx="139.8604"
     inkscape:cy="121.99277"
     inkscape:window-width="1920"
     inkscape:window-height="1010"
     inkscape:window-x="0"
     inkscape:window-y="34"
     inkscape:window-maximized="1"
     inkscape:current-layer="svg56" />
  <defs
     id="defs13">
    <filter
       id="oagYCh9SdS3oX91noF1hjAjsZPYgb9mG"
       width="1.0842484"
       height="1.1077841"
       x="-0.042124196"
       y="-0.045133094"
       color-interpolation-filters="sRGB"
       filterUnits="objectBoundingBox">
      <feGaussianBlur
         in="SourceGraphic"
         stdDeviation="4.294"
         id="feGaussianBlur2" />
      <feOffset
         dx="0"
         dy="4"
         result="pf_100_offsetBlur"
         id="feOffset4" />
      <feFlood
         flood-opacity=".4"
         id="feFlood6" />
      <feComposite
         in2="pf_100_offsetBlur"
         operator="in"
         result="pf_100_dropShadow"
         id="feComposite8" />
      <feBlend
         in="SourceGraphic"
         in2="pf_100_dropShadow"
         mode="normal"
         id="feBlend10" />
    </filter>
  </defs>
  <g
     filter="url(#oagYCh9SdS3oX91noF1hjAjsZPYgb9mG)"
     id="g22"
     transform="translate(-66.469536,-14.307041)"
     style="fill:#313244;fill-opacity:1">
    <linearGradient
       id="_lgradient_84"
       x1="0.5"
       x2="0.5"
       y1="0"
       y2="1"
       gradientTransform="matrix(244.648,0,0,228.338,5.43,11.452)"
       gradientUnits="userSpaceOnUse">
      <stop
         offset="0%"
         style="stop-color:#1ad6ab"
         id="stop15" />
      <stop
         offset="100%"
         style="stop-color:#329db6"
         id="stop17" />
    </linearGradient>
    <path
       fill="url(#_lgradient_84)"
       d="m 232.15454,28.138041 c 74.056,0 84.639,10.557 84.639,84.542999 v 59.251 c 0,73.987 -10.583,84.544 -84.639,84.544 h -75.37 c -74.055004,0 -84.639004,-10.557 -84.639004,-84.544 v -59.251 c 0,-73.985999 10.584,-84.542999 84.639004,-84.542999 z"
       id="path20"
       style="fill:#cba6f7;fill-opacity:1" />
  </g>
  <g
     opacity="0.2"
     id="g26"
     transform="translate(0.246,2.379)">
    <path
       fill="#111111"
       d="m 165.439,11.452 c 74.056,0 84.639,10.557 84.639,84.543 v 59.251 c 0,73.987 -10.583,84.544 -84.639,84.544 H 90.069 C 16.014,239.79 5.43,229.233 5.43,155.246 V 95.995 c 0,-73.986 10.584,-84.543 84.639,-84.543 z"
       id="path24" />
  </g>
  <path
     d="M 40.523 36.333 L 215.477 36.333 C 218.297 36.333 220.587 38.623 220.587 41.444 L 220.587 133.436 C 220.587 136.257 218.297 138.547 215.477 138.547 L 40.523 138.547 C 37.703 138.547 35.413 136.257 35.413 133.436 L 35.413 41.444 C 35.413 38.623 37.703 36.333 40.523 36.333 Z"
     style="fill:#d9d9d9"
     id="path28" />
  <path
     fill="#3b3b3b"
     fill-rule="evenodd"
     d="M 153 99.75 L 153 86.85 L 153 86.85 Q 152.78 86.97 151.84 87.37 L 151.84 87.37 L 151.84 87.37 Q 151.68 87.43 151.34 87.57 L 151.34 87.57 L 151.34 87.57 Q 151 87.71 150.78 87.83 L 150.78 87.83 L 150.78 85.35 L 150.78 85.35 Q 153.18 84.11 153.72 83.55 L 153.72 83.55 L 156.34 83.55 L 156.34 99.75 L 153 99.75 Z M 163.34 99.99 L 163.34 99.99 Q 161.08 99.99 160.15 98.96 L 160.15 98.96 L 160.15 98.96 Q 159.22 97.93 159.22 95.81 L 159.22 95.81 L 159.22 95.55 L 162.34 95.55 L 162.34 95.55 Q 162.34 96.63 162.53 97.05 L 162.53 97.05 L 162.53 97.05 Q 162.72 97.47 163.36 97.47 L 163.36 97.47 L 163.36 97.47 Q 163.82 97.47 164.03 97.19 L 164.03 97.19 L 164.03 97.19 Q 164.24 96.91 164.32 96.25 L 164.32 96.25 L 164.32 96.25 Q 164.4 95.59 164.4 94.25 L 164.4 94.25 L 164.4 92.81 L 164.4 92.81 Q 164.14 93.23 163.58 93.47 L 163.58 93.47 L 163.58 93.47 Q 163.02 93.71 162.32 93.71 L 162.32 93.71 L 162.32 93.71 Q 160.56 93.71 159.73 92.35 L 159.73 92.35 L 159.73 92.35 Q 158.9 90.99 158.9 88.85 L 158.9 88.85 L 158.9 88.85 Q 158.9 86.19 159.95 84.76 L 159.95 84.76 L 159.95 84.76 Q 161 83.33 163.34 83.33 L 163.34 83.33 L 163.34 83.33 Q 165.64 83.33 166.72 84.68 L 166.72 84.68 L 166.72 84.68 Q 167.8 86.03 167.8 88.47 L 167.8 88.47 L 167.8 94.51 L 167.8 94.51 Q 167.8 97.13 166.82 98.56 L 166.82 98.56 L 166.82 98.56 Q 165.84 99.99 163.34 99.99 L 163.34 99.99 Z M 163.38 91.15 L 163.38 91.15 Q 163.98 91.15 164.4 90.51 L 164.4 90.51 L 164.4 87.87 L 164.4 87.87 Q 164.4 86.91 164.18 86.35 L 164.18 86.35 L 164.18 86.35 Q 163.96 85.79 163.34 85.79 L 163.34 85.79 L 163.34 85.79 Q 162.7 85.79 162.51 86.42 L 162.51 86.42 L 162.51 86.42 Q 162.32 87.05 162.32 88.53 L 162.32 88.53 L 162.32 88.53 Q 162.32 89.51 162.38 90.02 L 162.38 90.02 L 162.38 90.02 Q 162.44 90.53 162.66 90.84 L 162.66 90.84 L 162.66 90.84 Q 162.88 91.15 163.38 91.15 L 163.38 91.15 Z M 174.1 99.99 L 174.1 99.99 Q 171.84 99.99 170.91 98.96 L 170.91 98.96 L 170.91 98.96 Q 169.98 97.93 169.98 95.81 L 169.98 95.81 L 169.98 95.55 L 173.1 95.55 L 173.1 95.55 Q 173.1 96.63 173.29 97.05 L 173.29 97.05 L 173.29 97.05 Q 173.48 97.47 174.12 97.47 L 174.12 97.47 L 174.12 97.47 Q 174.58 97.47 174.79 97.19 L 174.79 97.19 L 174.79 97.19 Q 175 96.91 175.08 96.25 L 175.08 96.25 L 175.08 96.25 Q 175.16 95.59 175.16 94.25 L 175.16 94.25 L 175.16 92.81 L 175.16 92.81 Q 174.9 93.23 174.34 93.47 L 174.34 93.47 L 174.34 93.47 Q 173.78 93.71 173.08 93.71 L 173.08 93.71 L 173.08 93.71 Q 171.32 93.71 170.49 92.35 L 170.49 92.35 L 170.49 92.35 Q 169.66 90.99 169.66 88.85 L 169.66 88.85 L 169.66 88.85 Q 169.66 86.19 170.71 84.76 L 170.71 84.76 L 170.71 84.76 Q 171.76 83.33 174.1 83.33 L 174.1 83.33 L 174.1 83.33 Q 176.4 83.33 177.48 84.68 L 177.48 84.68 L 177.48 84.68 Q 178.56 86.03 178.56 88.47 L 178.56 88.47 L 178.56 94.51 L 178.56 94.51 Q 178.56 97.13 177.58 98.56 L 177.58 98.56 L 177.58 98.56 Q 176.6 99.99 174.1 99.99 L 174.1 99.99 Z M 174.14 91.15 L 174.14 91.15 Q 174.74 91.15 175.16 90.51 L 175.16 90.51 L 175.16 87.87 L 175.16 87.87 Q 175.16 86.91 174.94 86.35 L 174.94 86.35 L 174.94 86.35 Q 174.72 85.79 174.1 85.79 L 174.1 85.79 L 174.1 85.79 Q 173.46 85.79 173.27 86.42 L 173.27 86.42 L 173.27 86.42 Q 173.08 87.05 173.08 88.53 L 173.08 88.53 L 173.08 88.53 Q 173.08 89.51 173.14 90.02 L 173.14 90.02 L 173.14 90.02 Q 173.2 90.53 173.42 90.84 L 173.42 90.84 L 173.42 90.84 Q 173.64 91.15 174.14 91.15 L 174.14 91.15 Z M 185.14 100.05 L 185.14 100.05 Q 183 100.05 181.86 98.79 L 181.86 98.79 L 181.86 98.79 Q 180.72 97.53 180.72 95.41 L 180.72 95.41 L 180.72 88.07 L 180.72 88.07 Q 180.72 85.85 181.83 84.58 L 181.83 84.58 L 181.83 84.58 Q 182.94 83.31 185.14 83.31 L 185.14 83.31 L 185.14 83.31 Q 187.34 83.31 188.44 84.58 L 188.44 84.58 L 188.44 84.58 Q 189.54 85.85 189.54 88.07 L 189.54 88.07 L 189.54 95.41 L 189.54 95.41 Q 189.54 97.51 188.39 98.78 L 188.39 98.78 L 188.39 98.78 Q 187.24 100.05 185.14 100.05 L 185.14 100.05 Z M 185.14 97.07 L 185.14 97.07 Q 185.76 97.07 185.95 96.55 L 185.95 96.55 L 185.95 96.55 Q 186.14 96.03 186.14 95.33 L 186.14 95.33 L 186.14 88.15 L 186.14 88.15 Q 186.14 87.35 185.97 86.82 L 185.97 86.82 L 185.97 86.82 Q 185.8 86.29 185.14 86.29 L 185.14 86.29 L 185.14 86.29 Q 184.48 86.29 184.31 86.81 L 184.31 86.81 L 184.31 86.81 Q 184.14 87.33 184.14 88.15 L 184.14 88.15 L 184.14 95.33 L 184.14 95.33 Q 184.14 97.07 185.14 97.07 L 185.14 97.07 Z M 140.16 100.05 L 140.16 100.05 Q 137.74 100.05 136.72 98.73 L 136.72 98.73 L 136.72 98.73 Q 135.7 97.41 135.7 94.97 L 135.7 94.97 L 135.7 94.39 L 139.04 94.39 L 139.04 94.97 L 139.04 94.97 Q 139.04 96.21 139.29 96.72 L 139.29 96.72 L 139.29 96.72 Q 139.54 97.23 140.22 97.23 L 140.22 97.23 L 140.22 97.23 Q 140.86 97.23 141.08 96.73 L 141.08 96.73 L 141.08 96.73 Q 141.3 96.23 141.3 95.07 L 141.3 95.07 L 141.3 95.07 Q 141.3 93.79 140.94 93.2 L 140.94 93.2 L 140.94 93.2 Q 140.58 92.61 139.6 92.59 L 139.6 92.59 L 138.98 92.59 L 138.98 90.29 L 139.52 90.29 L 139.52 90.29 Q 140.54 90.29 140.92 89.74 L 140.92 89.74 L 140.92 89.74 Q 141.3 89.19 141.3 87.91 L 141.3 87.91 L 141.3 87.91 Q 141.3 86.93 141.04 86.45 L 141.04 86.45 L 141.04 86.45 Q 140.78 85.97 140.12 85.97 L 140.12 85.97 L 140.12 85.97 Q 139.5 85.97 139.27 86.48 L 139.27 86.48 L 139.27 86.48 Q 139.04 86.99 139.04 87.97 L 139.04 87.97 L 139.04 88.81 L 135.7 88.81 L 135.7 87.83 L 135.7 87.83 Q 135.7 85.65 136.87 84.48 L 136.87 84.48 L 136.87 84.48 Q 138.04 83.31 140.12 83.31 L 140.12 83.31 L 140.12 83.31 Q 142.24 83.31 143.42 84.43 L 143.42 84.43 L 143.42 84.43 Q 144.6 85.55 144.6 87.69 L 144.6 87.69 L 144.6 87.69 Q 144.6 89.07 144.04 90.04 L 144.04 90.04 L 144.04 90.04 Q 143.48 91.01 142.62 91.25 L 142.62 91.25 L 142.62 91.25 Q 143.54 91.59 144.07 92.47 L 144.07 92.47 L 144.07 92.47 Q 144.6 93.35 144.6 94.99 L 144.6 94.99 L 144.6 94.99 Q 144.6 97.35 143.54 98.7 L 143.54 98.7 L 143.54 98.7 Q 142.48 100.05 140.16 100.05 L 140.16 100.05 Z M 69.2 99.99 L 69.2 99.99 Q 66.58 99.99 65.46 98.64 L 65.46 98.64 L 65.46 98.64 Q 64.34 97.29 64.34 94.65 L 64.34 94.65 L 64.34 88.63 L 64.34 88.63 Q 64.34 85.99 65.46 84.66 L 65.46 84.66 L 65.46 84.66 Q 66.58 83.33 69.2 83.33 L 69.2 83.33 L 69.2 83.33 Q 71.84 83.33 72.97 84.67 L 72.97 84.67 L 72.97 84.67 Q 74.1 86.01 74.1 88.63 L 74.1 88.63 L 74.1 94.65 L 74.1 94.65 Q 74.1 97.29 72.97 98.64 L 72.97 98.64 L 72.97 98.64 Q 71.84 99.99 69.2 99.99 L 69.2 99.99 Z M 69.2 97.45 L 69.2 97.45 Q 69.96 97.45 70.2 96.94 L 70.2 96.94 L 70.2 96.94 Q 70.44 96.43 70.44 95.55 L 70.44 95.55 L 70.44 87.75 L 70.44 87.75 Q 70.44 86.85 70.2 86.35 L 70.2 86.35 L 70.2 86.35 Q 69.96 85.85 69.2 85.85 L 69.2 85.85 L 69.2 85.85 Q 68.48 85.85 68.24 86.36 L 68.24 86.36 L 68.24 86.36 Q 68 86.87 68 87.75 L 68 87.75 L 68 95.55 L 68 95.55 Q 68 96.43 68.22 96.94 L 68.22 96.94 L 68.22 96.94 Q 68.44 97.45 69.2 97.45 L 69.2 97.45 Z M 76.1 99.75 L 76.1 83.55 L 79.34 83.55 L 79.34 92.53 L 82.18 88.19 L 85.84 88.19 L 82.76 92.93 L 85.8 99.75 L 82.24 99.75 L 80.2 94.25 L 79.34 95.35 L 79.34 99.75 L 76.1 99.75 Z M 90.5 99.87 L 90.5 99.87 Q 89.22 99.87 88.52 99.5 L 88.52 99.5 L 88.52 99.5 Q 87.82 99.13 87.54 98.43 L 87.54 98.43 L 87.54 98.43 Q 87.26 97.73 87.26 96.61 L 87.26 96.61 L 87.26 90.33 L 86.14 90.33 L 86.14 88.19 L 87.26 88.19 L 87.26 84.67 L 90.56 84.67 L 90.56 88.19 L 92.2 88.19 L 92.2 90.33 L 90.56 90.33 L 90.56 96.29 L 90.56 96.29 Q 90.56 96.77 90.83 97 L 90.83 97 L 90.83 97 Q 91.1 97.23 91.58 97.23 L 91.58 97.23 L 91.58 97.23 Q 91.98 97.23 92.46 97.15 L 92.46 97.15 L 92.46 99.71 L 92.46 99.71 Q 91.5 99.87 90.5 99.87 L 90.5 99.87 Z M 97.8 99.95 L 97.8 99.95 Q 95.9 99.95 94.83 98.99 L 94.83 98.99 L 94.83 98.99 Q 93.76 98.03 93.76 96.17 L 93.76 96.17 L 93.76 91.77 L 93.76 91.77 Q 93.76 89.91 94.83 88.95 L 94.83 88.95 L 94.83 88.95 Q 95.9 87.99 97.8 87.99 L 97.8 87.99 L 97.8 87.99 Q 99.7 87.99 100.78 88.96 L 100.78 88.96 L 100.78 88.96 Q 101.86 89.93 101.86 91.77 L 101.86 91.77 L 101.86 96.17 L 101.86 96.17 Q 101.86 98.01 100.78 98.98 L 100.78 98.98 L 100.78 98.98 Q 99.7 99.95 97.8 99.95 L 97.8 99.95 Z M 97.82 97.79 L 97.82 97.79 Q 98.28 97.79 98.46 97.44 L 98.46 97.44 L 98.46 97.44 Q 98.64 97.09 98.64 96.39 L 98.64 96.39 L 98.64 91.55 L 98.64 91.55 Q 98.64 90.85 98.46 90.5 L 98.46 90.5 L 98.46 90.5 Q 98.28 90.15 97.82 90.15 L 97.82 90.15 L 97.82 90.15 Q 97.36 90.15 97.17 90.51 L 97.17 90.51 L 97.17 90.51 Q 96.98 90.87 96.98 91.55 L 96.98 91.55 L 96.98 96.39 L 96.98 96.39 Q 96.98 97.09 97.17 97.44 L 97.17 97.44 L 97.17 97.44 Q 97.36 97.79 97.82 97.79 L 97.82 97.79 Z M 109.4 99.95 L 109.4 99.95 Q 108.16 99.95 106.92 98.87 L 106.92 98.87 L 106.92 99.75 L 103.66 99.75 L 103.66 83.55 L 106.92 83.55 L 106.92 89.03 L 106.92 89.03 Q 107.5 88.51 108.16 88.25 L 108.16 88.25 L 108.16 88.25 Q 108.82 87.99 109.44 87.99 L 109.44 87.99 L 109.44 87.99 Q 110.7 87.99 111.31 88.93 L 111.31 88.93 L 111.31 88.93 Q 111.92 89.87 111.92 91.39 L 111.92 91.39 L 111.92 96.37 L 111.92 96.37 Q 111.92 98.03 111.26 98.99 L 111.26 98.99 L 111.26 98.99 Q 110.6 99.95 109.4 99.95 L 109.4 99.95 Z M 107.82 97.85 L 107.82 97.85 Q 108.26 97.85 108.46 97.49 L 108.46 97.49 L 108.46 97.49 Q 108.66 97.13 108.66 96.55 L 108.66 96.55 L 108.66 91.15 L 108.66 91.15 Q 108.66 90.61 108.47 90.28 L 108.47 90.28 L 108.47 90.28 Q 108.28 89.95 107.86 89.95 L 107.86 89.95 L 107.86 89.95 Q 107.4 89.95 106.92 90.33 L 106.92 90.33 L 106.92 97.53 L 106.92 97.53 Q 107.36 97.85 107.82 97.85 L 107.82 97.85 Z M 117.56 99.95 L 117.56 99.95 Q 115.66 99.95 114.6 98.94 L 114.6 98.94 L 114.6 98.94 Q 113.54 97.93 113.54 96.09 L 113.54 96.09 L 113.54 91.85 L 113.54 91.85 Q 113.54 90.01 114.6 89 L 114.6 89 L 114.6 89 Q 115.66 87.99 117.56 87.99 L 117.56 87.99 L 117.56 87.99 Q 119.48 87.99 120.44 88.97 L 120.44 88.97 L 120.44 88.97 Q 121.4 89.95 121.4 91.85 L 121.4 91.85 L 121.4 94.17 L 116.76 94.17 L 116.76 96.39 L 116.76 96.39 Q 116.76 97.63 117.56 97.63 L 117.56 97.63 L 117.56 97.63 Q 118.4 97.63 118.4 96.51 L 118.4 96.51 L 118.4 95.29 L 121.4 95.29 L 121.4 96.41 L 121.4 96.41 Q 121.4 98.15 120.39 99.05 L 120.39 99.05 L 120.39 99.05 Q 119.38 99.95 117.56 99.95 L 117.56 99.95 Z M 116.76 92.65 L 118.4 92.65 L 118.4 91.49 L 118.4 91.49 Q 118.4 90.85 118.17 90.58 L 118.17 90.58 L 118.17 90.58 Q 117.94 90.31 117.54 90.31 L 117.54 90.31 L 117.54 90.31 Q 117.16 90.31 116.96 90.61 L 116.96 90.61 L 116.96 90.61 Q 116.76 90.91 116.76 91.67 L 116.76 91.67 L 116.76 92.65 Z M 123.22 99.75 L 123.22 88.19 L 126.48 88.19 L 126.48 90.11 L 126.48 90.11 Q 127.08 89.05 127.64 88.55 L 127.64 88.55 L 127.64 88.55 Q 128.2 88.05 128.96 88.05 L 128.96 88.05 L 128.96 88.05 Q 129.24 88.05 129.46 88.11 L 129.46 88.11 L 129.46 91.35 L 129.46 91.35 Q 128.86 91.11 128.4 91.11 L 128.4 91.11 L 128.4 91.11 Q 127.34 91.11 126.48 92.23 L 126.48 92.23 L 126.48 99.75 L 123.22 99.75 Z M 77.45 70.11 L 77.45 53.91 L 81.55 53.91 L 81.55 53.91 Q 83.65 53.91 84.83 54.43 L 84.83 54.43 L 84.83 54.43 Q 86.01 54.95 86.5 56.06 L 86.5 56.06 L 86.5 56.06 Q 86.99 57.17 86.99 59.03 L 86.99 59.03 L 86.99 64.91 L 86.99 64.91 Q 86.99 66.79 86.5 67.91 L 86.5 67.91 L 86.5 67.91 Q 86.01 69.03 84.84 69.57 L 84.84 69.57 L 84.84 69.57 Q 83.67 70.11 81.59 70.11 L 81.59 70.11 L 77.45 70.11 Z M 81.03 67.63 L 81.59 67.63 L 81.59 67.63 Q 82.37 67.63 82.74 67.4 L 82.74 67.4 L 82.74 67.4 Q 83.11 67.17 83.21 66.74 L 83.21 66.74 L 83.21 66.74 Q 83.31 66.31 83.31 65.47 L 83.31 65.47 L 83.31 58.41 L 83.31 58.41 Q 83.31 57.63 83.2 57.22 L 83.2 57.22 L 83.2 57.22 Q 83.09 56.81 82.72 56.61 L 82.72 56.61 L 82.72 56.61 Q 82.35 56.41 81.57 56.41 L 81.57 56.41 L 81.03 56.41 L 81.03 67.63 Z M 92.77 70.31 L 92.77 70.31 Q 90.87 70.31 89.81 69.3 L 89.81 69.3 L 89.81 69.3 Q 88.75 68.29 88.75 66.45 L 88.75 66.45 L 88.75 62.21 L 88.75 62.21 Q 88.75 60.37 89.81 59.36 L 89.81 59.36 L 89.81 59.36 Q 90.87 58.35 92.77 58.35 L 92.77 58.35 L 92.77 58.35 Q 94.69 58.35 95.65 59.33 L 95.65 59.33 L 95.65 59.33 Q 96.61 60.31 96.61 62.21 L 96.61 62.21 L 96.61 64.53 L 91.97 64.53 L 91.97 66.75 L 91.97 66.75 Q 91.97 67.99 92.77 67.99 L 92.77 67.99 L 92.77 67.99 Q 93.61 67.99 93.61 66.87 L 93.61 66.87 L 93.61 65.65 L 96.61 65.65 L 96.61 66.77 L 96.61 66.77 Q 96.61 68.51 95.6 69.41 L 95.6 69.41 L 95.6 69.41 Q 94.59 70.31 92.77 70.31 L 92.77 70.31 Z M 91.97 63.01 L 93.61 63.01 L 93.61 61.85 L 93.61 61.85 Q 93.61 61.21 93.38 60.94 L 93.38 60.94 L 93.38 60.94 Q 93.15 60.67 92.75 60.67 L 92.75 60.67 L 92.75 60.67 Q 92.37 60.67 92.17 60.97 L 92.17 60.97 L 92.17 60.97 Q 91.97 61.27 91.97 62.03 L 91.97 62.03 L 91.97 63.01 Z M 100.43 70.31 L 100.43 70.31 Q 99.39 70.31 98.83 69.56 L 98.83 69.56 L 98.83 69.56 Q 98.27 68.81 98.27 67.61 L 98.27 67.61 L 98.27 58.55 L 101.53 58.55 L 101.53 67.23 L 101.53 67.23 Q 101.53 67.67 101.69 67.89 L 101.69 67.89 L 101.69 67.89 Q 101.85 68.11 102.21 68.11 L 102.21 68.11 L 102.21 68.11 Q 102.53 68.11 103.17 67.75 L 103.17 67.75 L 103.17 58.55 L 106.41 58.55 L 106.41 70.11 L 103.17 70.11 L 103.17 69.05 L 103.17 69.05 Q 101.81 70.31 100.43 70.31 L 100.43 70.31 Z M 112.05 70.23 L 112.05 70.23 Q 110.77 70.23 110.07 69.86 L 110.07 69.86 L 110.07 69.86 Q 109.37 69.49 109.09 68.79 L 109.09 68.79 L 109.09 68.79 Q 108.81 68.09 108.81 66.97 L 108.81 66.97 L 108.81 60.69 L 107.69 60.69 L 107.69 58.55 L 108.81 58.55 L 108.81 55.03 L 112.11 55.03 L 112.11 58.55 L 113.75 58.55 L 113.75 60.69 L 112.11 60.69 L 112.11 66.65 L 112.11 66.65 Q 112.11 67.13 112.38 67.36 L 112.38 67.36 L 112.38 67.36 Q 112.65 67.59 113.13 67.59 L 113.13 67.59 L 113.13 67.59 Q 113.53 67.59 114.01 67.51 L 114.01 67.51 L 114.01 70.07 L 114.01 70.07 Q 113.05 70.23 112.05 70.23 L 112.05 70.23 Z M 119.11 70.31 L 119.11 70.31 Q 117.57 70.31 116.56 69.62 L 116.56 69.62 L 116.56 69.62 Q 115.55 68.93 114.93 67.41 L 114.93 67.41 L 117.15 66.43 L 117.15 66.43 Q 117.47 67.23 117.9 67.67 L 117.9 67.67 L 117.9 67.67 Q 118.33 68.11 118.85 68.11 L 118.85 68.11 L 118.85 68.11 Q 119.61 68.11 119.61 67.51 L 119.61 67.51 L 119.61 67.51 Q 119.61 67.07 119.31 66.72 L 119.31 66.72 L 119.31 66.72 Q 119.01 66.37 118.01 65.55 L 118.01 65.55 L 117.17 64.85 L 117.17 64.85 Q 116.13 63.97 115.66 63.25 L 115.66 63.25 L 115.66 63.25 Q 115.19 62.53 115.19 61.53 L 115.19 61.53 L 115.19 61.53 Q 115.19 60.61 115.68 59.89 L 115.68 59.89 L 115.68 59.89 Q 116.17 59.17 116.99 58.76 L 116.99 58.76 L 116.99 58.76 Q 117.81 58.35 118.75 58.35 L 118.75 58.35 L 118.75 58.35 Q 120.17 58.35 121.12 59.12 L 121.12 59.12 L 121.12 59.12 Q 122.07 59.89 122.47 61.33 L 122.47 61.33 L 120.37 62.29 L 120.37 62.29 Q 120.17 61.65 119.75 61.14 L 119.75 61.14 L 119.75 61.14 Q 119.33 60.63 118.83 60.63 L 118.83 60.63 L 118.83 60.63 Q 118.51 60.63 118.32 60.81 L 118.32 60.81 L 118.32 60.81 Q 118.13 60.99 118.13 61.29 L 118.13 61.29 L 118.13 61.29 Q 118.13 61.65 118.52 62.07 L 118.52 62.07 L 118.52 62.07 Q 118.91 62.49 119.75 63.17 L 119.75 63.17 L 120.57 63.89 L 120.57 63.89 Q 121.57 64.73 122.11 65.46 L 122.11 65.46 L 122.11 65.46 Q 122.65 66.19 122.65 67.17 L 122.65 67.17 L 122.65 67.17 Q 122.65 68.15 122.16 68.86 L 122.16 68.86 L 122.16 68.86 Q 121.67 69.57 120.86 69.94 L 120.86 69.94 L 120.86 69.94 Q 120.05 70.31 119.11 70.31 L 119.11 70.31 Z M 127.79 70.31 L 127.79 70.31 Q 125.91 70.31 124.85 69.29 L 124.85 69.29 L 124.85 69.29 Q 123.79 68.27 123.79 66.45 L 123.79 66.45 L 123.79 62.21 L 123.79 62.21 Q 123.79 60.37 124.84 59.36 L 124.84 59.36 L 124.84 59.36 Q 125.89 58.35 127.79 58.35 L 127.79 58.35 L 127.79 58.35 Q 129.67 58.35 130.68 59.23 L 130.68 59.23 L 130.68 59.23 Q 131.69 60.11 131.69 61.83 L 131.69 61.83 L 131.69 63.05 L 128.55 63.05 L 128.55 61.73 L 128.55 61.73 Q 128.55 61.07 128.36 60.82 L 128.36 60.82 L 128.36 60.82 Q 128.17 60.57 127.79 60.57 L 127.79 60.57 L 127.79 60.57 Q 127.41 60.57 127.24 60.88 L 127.24 60.88 L 127.24 60.88 Q 127.07 61.19 127.07 61.93 L 127.07 61.93 L 127.07 66.73 L 127.07 66.73 Q 127.07 67.47 127.25 67.77 L 127.25 67.77 L 127.25 67.77 Q 127.43 68.07 127.81 68.07 L 127.81 68.07 L 127.81 68.07 Q 128.19 68.07 128.37 67.81 L 128.37 67.81 L 128.37 67.81 Q 128.55 67.55 128.55 66.93 L 128.55 66.93 L 128.55 65.39 L 131.69 65.39 L 131.69 66.79 L 131.69 66.79 Q 131.69 68.51 130.67 69.41 L 130.67 69.41 L 130.67 69.41 Q 129.65 70.31 127.79 70.31 L 127.79 70.31 Z M 133.41 70.11 L 133.41 53.91 L 136.65 53.91 L 136.65 59.57 L 136.65 59.57 Q 137.87 58.35 139.49 58.35 L 139.49 58.35 L 139.49 58.35 Q 140.49 58.35 141.05 59.1 L 141.05 59.1 L 141.05 59.1 Q 141.61 59.85 141.61 61.05 L 141.61 61.05 L 141.61 70.11 L 138.37 70.11 L 138.37 61.51 L 138.37 61.51 Q 138.37 61.07 138.22 60.86 L 138.22 60.86 L 138.22 60.86 Q 138.07 60.65 137.71 60.65 L 137.71 60.65 L 137.71 60.65 Q 137.29 60.65 136.65 61.07 L 136.65 61.07 L 136.65 70.11 L 133.41 70.11 Z M 143.71 70.11 L 143.71 53.91 L 146.95 53.91 L 146.95 70.11 L 143.71 70.11 Z M 151.43 70.31 L 151.43 70.31 Q 150.59 70.31 149.98 69.9 L 149.98 69.9 L 149.98 69.9 Q 149.37 69.49 149.06 68.84 L 149.06 68.84 L 149.06 68.84 Q 148.75 68.19 148.75 67.49 L 148.75 67.49 L 148.75 67.49 Q 148.75 66.15 149.43 65.29 L 149.43 65.29 L 149.43 65.29 Q 150.11 64.43 151.06 63.95 L 151.06 63.95 L 151.06 63.95 Q 152.01 63.47 153.51 62.95 L 153.51 62.95 L 153.51 61.79 L 153.51 61.79 Q 153.51 61.29 153.36 61.03 L 153.36 61.03 L 153.36 61.03 Q 153.21 60.77 152.83 60.77 L 152.83 60.77 L 152.83 60.77 Q 152.45 60.77 152.29 61.01 L 152.29 61.01 L 152.29 61.01 Q 152.13 61.25 152.11 61.69 L 152.11 61.69 L 152.03 62.53 L 148.99 62.41 L 148.99 62.41 Q 149.07 60.33 150.09 59.34 L 150.09 59.34 L 150.09 59.34 Q 151.11 58.35 153.13 58.35 L 153.13 58.35 L 153.13 58.35 Q 154.83 58.35 155.73 59.3 L 155.73 59.3 L 155.73 59.3 Q 156.63 60.25 156.63 61.83 L 156.63 61.83 L 156.63 67.23 L 156.63 67.23 Q 156.63 68.99 156.83 70.11 L 156.83 70.11 L 153.91 70.11 L 153.91 70.11 Q 153.73 68.77 153.65 68.47 L 153.65 68.47 L 153.65 68.47 Q 153.41 69.27 152.85 69.79 L 152.85 69.79 L 152.85 69.79 Q 152.29 70.31 151.43 70.31 L 151.43 70.31 Z M 152.59 68.11 L 152.59 68.11 Q 153.09 68.11 153.51 67.53 L 153.51 67.53 L 153.51 64.37 L 153.51 64.37 Q 152.61 64.89 152.15 65.46 L 152.15 65.46 L 152.15 65.46 Q 151.69 66.03 151.69 66.85 L 151.69 66.85 L 151.69 66.85 Q 151.69 67.43 151.93 67.77 L 151.93 67.77 L 151.93 67.77 Q 152.17 68.11 152.59 68.11 L 152.59 68.11 Z M 158.57 70.11 L 158.57 58.55 L 161.83 58.55 L 161.83 59.71 L 161.83 59.71 Q 163.19 58.35 164.61 58.35 L 164.61 58.35 L 164.61 58.35 Q 165.65 58.35 166.2 59.1 L 166.2 59.1 L 166.2 59.1 Q 166.75 59.85 166.75 61.05 L 166.75 61.05 L 166.75 70.11 L 163.51 70.11 L 163.51 61.51 L 163.51 61.51 Q 163.51 61.07 163.36 60.86 L 163.36 60.86 L 163.36 60.86 Q 163.21 60.65 162.85 60.65 L 162.85 60.65 L 162.85 60.65 Q 162.45 60.65 161.83 61.07 L 161.83 61.07 L 161.83 70.11 L 158.57 70.11 Z M 171.21 70.31 L 171.21 70.31 Q 169.91 70.31 169.22 69.41 L 169.22 69.41 L 169.22 69.41 Q 168.53 68.51 168.53 66.75 L 168.53 66.75 L 168.53 61.97 L 168.53 61.97 Q 168.53 60.31 169.22 59.33 L 169.22 59.33 L 169.22 59.33 Q 169.91 58.35 171.21 58.35 L 171.21 58.35 L 171.21 58.35 Q 172.43 58.35 173.49 59.27 L 173.49 59.27 L 173.49 53.91 L 176.75 53.91 L 176.75 70.11 L 173.49 70.11 L 173.49 69.21 L 173.49 69.21 Q 172.35 70.31 171.21 70.31 L 171.21 70.31 Z M 172.63 68.23 L 172.63 68.23 Q 173.01 68.23 173.49 67.93 L 173.49 67.93 L 173.49 60.63 L 173.49 60.63 Q 173.01 60.37 172.65 60.37 L 172.65 60.37 L 172.65 60.37 Q 172.23 60.37 172.02 60.72 L 172.02 60.72 L 172.02 60.72 Q 171.81 61.07 171.81 61.63 L 171.81 61.63 L 171.81 66.95 L 171.81 66.95 Q 171.81 67.53 172.01 67.88 L 172.01 67.88 L 172.01 67.88 Q 172.21 68.23 172.63 68.23 L 172.63 68.23 Z"
     id="path30" />
  <linearGradient
     id="_lgradient_85"
     x1=".5"
     x2=".5"
     y1="0"
     y2="1"
     gradientTransform="matrix(243.767,0,0,175.665,6.1167032,65.39)"
     gradientUnits="userSpaceOnUse">
    <stop
       offset="0%"
       style="stop-color:#cba6f7;stop-opacity:1"
       id="stop32" />
    <stop
       offset="100%"
       style="stop-color:#1e1e2e;stop-opacity:1"
       id="stop34" />
  </linearGradient>
  <path
     fill="url(#_lgradient_85)"
     d="m 64.559703,240.661 c -38.81,-2.438 -52.135,-12.679 -56.8259998,-43.673 -1.543,-10.191 -1.748,-16.075 -1.558,-44.741 0.152,-22.969 0.294,-28.168 0.863,-31.622 1.238,-7.508 3.0869998,-12.302 6.7219998,-17.427 4.621,-6.516 12.161,-10.513 23.349,-12.376 3.712,-0.618 8.622,-0.749 35.805,-0.957 l 31.502997,-0.241 12.162,-12.117 12.161,-12.117 42.52,0.172 c 30.996,0.126 43.472,0.312 46.033,0.687 5.856,0.859 11.16,2.401 15.295,4.448 3.143,1.556 4.545,2.568 7.027,5.072 6.159,6.216 8.819,13.144 9.94,25.887 0.619,7.048 0.291,75.135 -0.401,83.246 -1.776,20.787 -5.333,32.205 -12.598,40.434 -8.43,9.547 -21.299,13.793 -46.544,15.356 -8.111,0.502 -117.392997,0.475 -125.452997,-0.031 z"
     id="path37"
     style="fill:url(#_lgradient_85)" />
  <g
     opacity="0.4"
     id="g41"
     transform="translate(-0.29619454)">
    <path
       fill="#ececec"
       d="m 7.348,119.129 c 0.904,-10.365 7.288,-20.807 15.334,-25.085 3.461,-1.84 9.188,-3.689 13.827,-4.464 5.126,-0.857 23.732,-1.407 48.557,-1.435 l 19.428,-0.022 12.283,-12.003 12.282,-12.003 43.107,0.166 c 46.346,0.177 45.941,0.16 54.044,2.382 12.077,3.314 19.827,11.888 22.518,24.914 0.971,4.706 0.74,5.543 -0.362,1.309 -1.883,-7.235 -3.953,-11.031 -8.464,-15.519 -4.07,-4.049 -9.244,-6.78 -15.742,-8.308 -7.081,-1.666 -7.904,-1.695 -52.204,-1.879 l -42.903,-0.178 -12.401,12.189 -12.4,12.189 -31.707,0.183 c -26.57,0.154 -32.31,0.29 -35.428,0.841 -9.603,1.698 -15.365,4.264 -20.086,8.944 -4.704,4.664 -7.406,9.64 -9.096,16.752 -0.74,3.113 -0.774,3.173 -0.587,1.027 z"
       id="path39" />
  </g>
  <g
     opacity="0.4"
     id="g54"
     transform="translate(67.936201,-31.419314)">
    <linearGradient
       id="_lgradient_86"
       x1="0.51700002"
       x2="0.51700002"
       y1="0"
       y2="1"
       gradientTransform="matrix(244.65,0,0,228.34,-62.261203,45.249313)"
       gradientUnits="userSpaceOnUse">
      <stop
         offset="0%"
         style="stop-color:#ffffff"
         id="stop43" />
      <stop
         offset="12.5%"
         stop-opacity=".098"
         style="stop-color:#ffffff"
         id="stop45" />
      <stop
         offset="92.5%"
         stop-opacity=".098"
         style="stop-color:#000000"
         id="stop47" />
      <stop
         offset="100%"
         stop-opacity=".498"
         style="stop-color:#000000"
         id="stop49" />
    </linearGradient>
    <path
       fill="url(#_lgradient_86)"
       fill-rule="evenodd"
       d="m 97.126797,45.250313 c 4.328003,-0.01 8.656003,0.04 12.984003,0.138 3.875,0.078 7.751,0.226 11.626,0.452 3.453,0.196 6.905,0.481 10.348,0.854 3.059,0.335 6.118,0.786 9.148,1.346 2.715,0.502 5.4,1.14 8.046,1.916 2.4,0.698 4.751,1.562 7.023,2.584 2.115,0.943 4.141,2.063 6.059,3.35 1.84,1.238 3.561,2.653 5.135,4.215 1.564,1.572 2.98,3.282 4.219,5.119 1.289,1.916 2.41,3.94 3.364,6.042 1.023,2.28 1.889,4.618 2.597,7.005 0.777,2.643 1.417,5.325 1.918,8.037 0.561,3.026 1.013,6.072 1.348,9.127 0.374,3.439 0.659,6.877997 0.856,10.325997 0.226,3.861 0.373,7.732 0.462,11.593 0.088,4.323 0.138,8.646 0.128,12.959 v 58.212 c 0.01,4.323 -0.04,8.636 -0.128,12.959 -0.089,3.871 -0.236,7.732 -0.462,11.593 -0.197,3.448 -0.482,6.897 -0.856,10.326 -0.335,3.055 -0.787,6.111 -1.348,9.137 -0.501,2.702 -1.141,5.384 -1.918,8.027 -0.708,2.387 -1.574,4.735 -2.597,7.005 -0.954,2.112 -2.075,4.126 -3.364,6.042 -1.239,1.837 -2.655,3.557 -4.219,5.119 -1.574,1.562 -3.295,2.977 -5.135,4.215 -1.918,1.287 -3.944,2.407 -6.059,3.35 -2.272,1.022 -4.623,1.886 -7.023,2.594 -2.646,0.776 -5.331,1.414 -8.046,1.906 -3.03,0.569 -6.089,1.011 -9.148,1.346 -3.443,0.373 -6.895,0.658 -10.348,0.854 -3.875,0.226 -7.751,0.374 -11.626,0.462 -4.328,0.088 -8.656,0.138 -12.984003,0.128 h -74.126 c -4.328,0.01 -8.656,-0.04 -12.984,-0.128 -3.8750001,-0.088 -7.7510001,-0.236 -11.6260001,-0.462 -3.453,-0.196 -6.905,-0.481 -10.3479999,-0.854 -3.059,-0.335 -6.118,-0.777 -9.148,-1.346 -2.715,-0.492 -5.4,-1.13 -8.046,-1.906 -2.4,-0.708 -4.751,-1.572 -7.023,-2.594 -2.115,-0.943 -4.141,-2.063 -6.059,-3.35 -1.84,-1.238 -3.561,-2.653 -5.135,-4.215 -1.564,-1.562 -2.98,-3.282 -4.219,-5.119 -1.289,-1.916 -2.41,-3.93 -3.364,-6.042 -1.023,-2.27 -1.889,-4.618 -2.597,-7.005 -0.777,-2.643 -1.417,-5.325 -1.918,-8.027 -0.561,-3.026 -1.013,-6.082 -1.348,-9.137 -0.374,-3.429 -0.659,-6.878 -0.856,-10.326 -0.226,-3.861 -0.373,-7.722 -0.462,-11.593 -0.088,-4.323 -0.138,-8.636 -0.128,-12.959 v -58.212 c -0.01,-4.313 0.04,-8.636 0.128,-12.959 0.089,-3.861 0.236,-7.732 0.462,-11.593 0.197,-3.448 0.482,-6.886997 0.856,-10.325997 0.335,-3.055 0.787,-6.101 1.348,-9.127 0.501,-2.712 1.141,-5.394 1.918,-8.037 0.708,-2.387 1.574,-4.725 2.597,-7.005 0.954,-2.102 2.075,-4.126 3.364,-6.042 1.239,-1.837 2.655,-3.547 4.219,-5.119 1.574,-1.562 3.295,-2.977 5.135,-4.215 1.918,-1.287 3.944,-2.407 6.059,-3.35 2.272,-1.022 4.623,-1.886 7.023,-2.584 2.646,-0.776 5.331,-1.414 8.046,-1.916 3.03,-0.56 6.089,-1.011 9.148,-1.346 3.4429999,-0.373 6.8949999,-0.658 10.3479999,-0.854 3.875,-0.226 7.751,-0.374 11.6260001,-0.452 4.328,-0.098 8.656,-0.148 12.984,-0.138 z m 0.01,4.009 c 4.298003,-0.01 8.597003,0.039 12.895003,0.127 3.827,0.089 7.653,0.236 11.479,0.452 3.384,0.197 6.767,0.472 10.131,0.845 2.971,0.315 5.932,0.747 8.863,1.297 2.577,0.472 5.134,1.081 7.653,1.818 2.223,0.648 4.396,1.454 6.501,2.397 1.909,0.855 3.738,1.867 5.469,3.026 1.623,1.091 3.138,2.338 4.525,3.724 1.387,1.385 2.636,2.898 3.738,4.519 1.16,1.729 2.174,3.547 3.029,5.443 0.945,2.112 1.751,4.284 2.4,6.494 0.748,2.515 1.348,5.06 1.83,7.634 0.541,2.928 0.974,5.875 1.298,8.842 0.374,3.36 0.65,6.729997 0.846,10.109997 0.217,3.822 0.374,7.634 0.453,11.456 0.088,4.293 0.137,8.577 0.137,12.87 0,0 0,0 0,0 v 58.212 c 0,0 0,0 0,0 0,4.293 -0.049,8.577 -0.137,12.87 -0.079,3.822 -0.236,7.644 -0.453,11.456 -0.196,3.38 -0.472,6.75 -0.846,10.12 -0.324,2.957 -0.757,5.904 -1.298,8.832 -0.482,2.574 -1.082,5.119 -1.83,7.634 -0.649,2.22 -1.455,4.382 -2.4,6.494 -0.855,1.896 -1.869,3.724 -3.029,5.443 -1.102,1.631 -2.351,3.144 -3.738,4.529 -1.387,1.376 -2.902,2.623 -4.525,3.714 -1.731,1.159 -3.56,2.171 -5.469,3.026 -2.105,0.953 -4.278,1.749 -6.501,2.397 -2.519,0.737 -5.076,1.346 -7.653,1.818 -2.931,0.55 -5.892,0.982 -8.863,1.306 -3.364,0.364 -6.747,0.649 -10.131,0.836 -3.826,0.216 -7.652,0.373 -11.479,0.452 -4.298,0.098 -8.597,0.137 -12.895003,0.137 0,0 0,0 -0.01,0 h -74.126 c -0.01,0 -0.01,0 -0.01,0 -4.298,0 -8.597,-0.039 -12.895,-0.137 -3.8270001,-0.079 -7.6530001,-0.236 -11.4790001,-0.452 -3.384,-0.187 -6.767,-0.472 -10.1309999,-0.836 -2.971,-0.324 -5.932,-0.756 -8.863,-1.306 -2.577,-0.472 -5.134,-1.081 -7.653,-1.818 -2.223,-0.648 -4.396,-1.444 -6.501,-2.397 -1.909,-0.855 -3.738,-1.867 -5.469,-3.026 -1.623,-1.091 -3.138,-2.338 -4.525,-3.714 -1.387,-1.385 -2.636,-2.898 -3.738,-4.529 -1.16,-1.719 -2.174,-3.547 -3.029,-5.443 -0.945,-2.112 -1.751,-4.274 -2.4,-6.494 -0.748,-2.515 -1.348,-5.06 -1.83,-7.634 -0.541,-2.928 -0.974,-5.875 -1.298,-8.832 -0.374,-3.37 -0.649,-6.74 -0.846,-10.12 -0.217,-3.812 -0.374,-7.634 -0.453,-11.456 -0.088,-4.293 -0.137,-8.577 -0.137,-12.87 0,0 0,0 0,0 v -58.212 c 0,0 0,0 0,0 0,-4.293 0.049,-8.577 0.137,-12.87 0.079,-3.822 0.236,-7.634 0.453,-11.456 0.197,-3.38 0.472,-6.749997 0.846,-10.109997 0.324,-2.967 0.757,-5.914 1.298,-8.842 0.482,-2.574 1.082,-5.119 1.83,-7.634 0.649,-2.21 1.455,-4.382 2.4,-6.494 0.855,-1.896 1.869,-3.714 3.029,-5.443 1.102,-1.621 2.351,-3.134 3.738,-4.519 1.387,-1.386 2.902,-2.633 4.525,-3.724 1.731,-1.159 3.56,-2.171 5.469,-3.026 2.105,-0.943 4.278,-1.749 6.501,-2.397 2.519,-0.737 5.076,-1.346 7.653,-1.818 2.931,-0.55 5.892,-0.982 8.863,-1.297 3.3639999,-0.373 6.7469999,-0.648 10.1309999,-0.845 3.826,-0.216 7.652,-0.363 11.4790001,-0.452 4.298,-0.088 8.597,-0.137 12.895,-0.127 0,0 0,0 0.01,0 h 74.126 c 0.01,0 0.01,0 0.01,0 z"
       id="path52"
       style="fill:url(#_lgradient_86)" />
  </g>
</svg>
